<?xml version="1.0" encoding="UTF-8" standalone="no"?><!DOCTYPE svg PUBLIC "-//W3C//DTD SVG 1.1//EN" "http://www.w3.org/Graphics/SVG/1.1/DTD/svg11.dtd"><svg width="100%" height="100%" viewBox="0 0 1280 400" version="1.1" xmlns="http://www.w3.org/2000/svg" xmlns:xlink="http://www.w3.org/1999/xlink" xml:space="preserve" xmlns:serif="http://www.serif.com/" style="fill-rule:evenodd;clip-rule:evenodd;stroke-linecap:square;stroke-linejoin:round;stroke-miterlimit:1.5;"><rect id="Artboard1" x="0" y="0" width="1280" height="400" style="fill:none;"/><g id="Artboard11" serif:id="Artboard1"><ellipse cx="226.453" cy="104.244" rx="58.242" ry="56.487" style="fill:#2ba3e1;"/><ellipse cx="284.696" cy="129.683" rx="58.242" ry="56.487" style="fill:#2192cc;"/><ellipse cx="185.887" cy="146.024" rx="58.242" ry="56.487" style="fill:#45aee4;"/><ellipse cx="284.696" cy="202.51" rx="58.242" ry="56.487" style="fill:#209fe0;"/><ellipse cx="226.453" cy="186.17" rx="58.242" ry="56.487" style="fill:#4db7ed;"/><ellipse cx="168.211" cy="217.217" rx="58.242" ry="56.487" style="fill:#2594cd;"/><text x="155.623px" y="351.307px" style="font-family:'AppleGothic';font-size:36px;">Network</text><text x="511.019px" y="351.775px" style="font-family:'AppleGothic';font-size:36px;">ESP OSC Link</text><text x="409.268px" y="151.203px" style="font-family:'AppleGothic';font-size:20px;">OSC</text><text x="823.787px" y="151.203px" style="font-family:'AppleGothic';font-size:20px;">SERIAL</text><text x="923.683px" y="351.775px" style="font-family:'AppleGothic';font-size:36px;">MicroController</text><g id="MC"><path d="M946.327,238.885l3.989,0l0.424,-21.394l1.936,-10.949l-5.508,-2.734l-2.163,7.186l0.159,6.497l1.163,21.394Z" style="fill:#2c2c2c;"/><path d="M944.153,213.088l55.174,36.147l148.962,-123.184l-4.195,-13.455l-45.516,-24.733l-145.942,108.191l-1.014,9.108l-7.469,7.926Z" style="fill:#080808;"/><path d="M1014.67,284.627l-0.923,-26.01l-5.277,-4.43l-0.244,-9.897l-5.287,-6.419l8.914,-9.073l6.486,5.05l0.176,50.779l-3.845,0Z" style="fill:#a8a7b0;"/><path d="M1033.12,270.361l-0.923,-26.011l-5.276,-4.429l-0.245,-9.898l-5.286,-6.419l8.914,-9.073l6.486,5.05l0.176,50.78l-3.846,0Z" style="fill:#a8a7b0;"/><path d="M1048.69,255.83l-0.923,-26.011l-5.276,-4.429l-0.244,-9.898l-5.287,-6.419l8.914,-9.073l6.486,5.05l0.176,50.78l-3.846,0Z" style="fill:#a8a7b0;"/><path d="M1067.6,242.446l-0.923,-26.011l-5.276,-4.429l-0.245,-9.898l-5.286,-6.419l8.914,-9.073l6.486,5.05l0.176,50.78l-3.846,0Z" style="fill:#a8a7b0;"/><path d="M1083.17,227.915l-0.923,-26.011l-5.276,-4.429l-0.244,-9.898l-5.287,-6.419l8.914,-9.073l6.486,5.05l0.176,50.78l-3.846,0Z" style="fill:#a8a7b0;"/><path d="M1098.75,217.491l-0.923,-26.01l-5.276,-4.43l-0.244,-9.897l-5.287,-6.419l8.914,-9.073l6.486,5.05l0.176,50.779l-3.846,0Z" style="fill:#a8a7b0;"/><path d="M1114.32,206.542l-0.922,-26.011l-5.277,-4.429l-0.244,-9.898l-5.287,-6.418l8.914,-9.074l6.486,5.05l0.176,50.78l-3.846,0Z" style="fill:#a8a7b0;"/><path d="M1129.9,189.576l-0.923,-26.01l-5.277,-4.43l-0.244,-9.897l-5.287,-6.419l8.914,-9.073l6.486,5.05l0.176,50.779l-3.845,0Z" style="fill:#a8a7b0;"/><path d="M1145.48,178.627l-0.923,-26.01l-5.276,-4.43l-0.245,-9.897l-5.287,-6.419l8.914,-9.073l6.486,5.05l0.176,50.779l-3.845,0Z" style="fill:#a8a7b0;"/></g><g id="ESP"><path d="M543.56,177.38l-0.315,14.11l11.233,6.759l0.776,-6.759l-11.694,-14.11Z" style="fill:#483a2b;"/><path d="M555.569,191.49l-0.315,14.11l11.233,6.759l0.776,-6.759l-11.694,-14.11Z" style="fill:#483a2b;"/><path d="M570.446,205.455l-0.316,14.11l11.233,6.759l0.776,-6.759l-11.693,-14.11Z" style="fill:#483a2b;"/><path d="M584.883,218.838l-0.316,14.11l11.233,6.759l0.776,-6.759l-11.693,-14.11Z" style="fill:#483a2b;"/><path d="M555.254,195.318l0.856,20.571" style="fill:none;stroke:#baa74f;stroke-width:4px;"/><path d="M555.254,195.318l0.856,20.571" style="fill:none;stroke:#baa74f;stroke-width:4px;"/><path d="M569.273,208.701l0.857,20.572" style="fill:none;stroke:#baa74f;stroke-width:4px;"/><path d="M582.139,220.981l0.857,20.571" style="fill:none;stroke:#baa74f;stroke-width:4px;"/><path d="M595.266,235.56l0.856,20.572" style="fill:none;stroke:#baa74f;stroke-width:4px;"/><path d="M611.077,226.274l0.857,20.572" style="fill:none;stroke:#baa74f;stroke-width:4px;"/><path d="M528.125,165.837l74.611,76.82l156.294,-109.412l-76.236,-72.975l-154.669,105.567Z" style="fill:#2b4aa0;stroke:#000;stroke-width:1px;stroke-linecap:round;"/><path d="M589.578,140.24l33.095,-21.977l26.938,26.565l-32.038,20.795l-27.995,-25.383Z" style="fill:#3d3d3d;"/><path d="M640,105.968l47.659,-33.341l7.515,7.115l-24.098,15.552l5.763,6.732l23.137,-16.484l6.25,5.598l-23.287,16.456l6.272,5.971l22.667,-16.01l6,5.497l-23.241,15.209l5.996,7.312l23.502,-14.543l21.259,17.734" style="fill:none;stroke:#e6e186;stroke-width:5.5px;"/><path d="M594.742,146.262l-2.434,2.216" style="fill:none;stroke:#fbffff;stroke-width:2px;"/><path d="M597.175,149.681l-2.433,2.215" style="fill:none;stroke:#fbffff;stroke-width:2px;"/><path d="M597.175,149.681l-2.433,2.215" style="fill:none;stroke:#fbffff;stroke-width:2px;"/><path d="M599.609,151.896l-2.434,2.216" style="fill:none;stroke:#fbffff;stroke-width:2px;"/><path d="M603.051,154.112l-2.433,2.215" style="fill:none;stroke:#fbffff;stroke-width:2px;"/><path d="M603.051,154.112l-2.433,2.215" style="fill:none;stroke:#fbffff;stroke-width:2px;"/><path d="M605.484,157.229l-2.433,2.216" style="fill:none;stroke:#fbffff;stroke-width:2px;"/><path d="M607.918,159.623l-2.434,2.215" style="fill:none;stroke:#fbffff;stroke-width:2px;"/><path d="M610.351,162.755l-2.433,2.215" style="fill:none;stroke:#fbffff;stroke-width:2px;"/><path d="M612.785,164.97l-2.434,2.216" style="fill:none;stroke:#fbffff;stroke-width:2px;"/><path d="M621.906,166.078l1.973,2.634" style="fill:none;stroke:#fbffff;stroke-width:2px;"/><path d="M625.727,163.443l1.972,2.635" style="fill:none;stroke:#fbffff;stroke-width:2px;"/><path d="M629.277,160.809l1.972,2.634" style="fill:none;stroke:#fbffff;stroke-width:2px;"/><path d="M629.277,160.809l1.972,2.634" style="fill:none;stroke:#fbffff;stroke-width:2px;"/><path d="M632.416,158.743l1.973,2.634" style="fill:none;stroke:#fbffff;stroke-width:2px;"/><path d="M635.627,156.109l1.972,2.634" style="fill:none;stroke:#fbffff;stroke-width:2px;"/><path d="M635.627,156.109l1.972,2.634" style="fill:none;stroke:#fbffff;stroke-width:2px;"/><path d="M638.555,154.09l1.973,2.634" style="fill:none;stroke:#fbffff;stroke-width:2px;"/><path d="M638.555,154.09l1.973,2.634" style="fill:none;stroke:#fbffff;stroke-width:2px;"/><path d="M641.541,152.002l1.973,2.634" style="fill:none;stroke:#fbffff;stroke-width:2px;"/><path d="M644.739,149.367l1.972,2.635" style="fill:none;stroke:#fbffff;stroke-width:2px;"/><path d="M645.725,139.502l0.369,-0.364" style="fill:none;stroke:#fbffff;stroke-width:2px;"/><path d="M649.124,142.354l0.369,-0.363" style="fill:none;stroke:#fbffff;stroke-width:2px;"/><path d="M649.124,142.354l0.369,-0.363" style="fill:none;stroke:#fbffff;stroke-width:2px;"/><path d="M643.145,137.202l0.369,-0.364" style="fill:none;stroke:#fbffff;stroke-width:2px;"/><path d="M640.619,134.82l0.369,-0.363" style="fill:none;stroke:#fbffff;stroke-width:2px;"/><path d="M637.909,132.096l0.369,-0.363" style="fill:none;stroke:#fbffff;stroke-width:2px;"/><path d="M637.909,132.096l0.369,-0.363" style="fill:none;stroke:#fbffff;stroke-width:2px;"/><path d="M635.297,129.217l0.369,-0.363" style="fill:none;stroke:#fbffff;stroke-width:2px;"/><path d="M632.47,126.657l0.369,-0.363" style="fill:none;stroke:#fbffff;stroke-width:2px;"/><path d="M629.485,124.17l0.369,-0.363" style="fill:none;stroke:#fbffff;stroke-width:2px;"/><path d="M624.175,179.255l9.821,-8.569" style="fill:none;stroke:#fbffff;stroke-width:4.5px;"/><path d="M630.179,185.612l9.821,-8.569" style="fill:none;stroke:#fbffff;stroke-width:4.5px;"/><path d="M636.887,191.949l9.822,-8.569" style="fill:none;stroke:#fbffff;stroke-width:4.5px;"/><path d="M641.798,197.49l9.821,-8.569" style="fill:none;stroke:#fbffff;stroke-width:4.5px;"/><ellipse cx="551.737" cy="175.831" rx="6.591" ry="6.198" style="fill:#bfbab7;"/><ellipse cx="567.847" cy="165.1" rx="6.591" ry="6.198" style="fill:#bfbab7;"/><path d="M630.786,165.623l24.931,25.508l23.202,-13.939l-24.801,-25.729l-23.332,14.16Z" style="fill:#3a3837;"/><ellipse cx="581.028" cy="178.902" rx="6.591" ry="6.198" style="fill:#bfbab7;"/><ellipse cx="594.21" cy="191.297" rx="6.591" ry="6.198" style="fill:#bfbab7;"/><ellipse cx="605.63" cy="203.692" rx="6.591" ry="6.198" style="fill:#bfbab7;"/><ellipse cx="589.144" cy="213.088" rx="6.591" ry="6.198" style="fill:#bfbab7;"/><ellipse cx="576.962" cy="199.692" rx="6.591" ry="6.198" style="fill:#bfbab7;"/><ellipse cx="563.781" cy="186.34" rx="6.591" ry="6.198" style="fill:#bfbab7;"/><path d="M659.675,153.792l6.801,-5.227" style="fill:none;stroke:#fbffff;stroke-width:4.5px;"/><path d="M664.754,161.166l6.8,-5.227" style="fill:none;stroke:#fbffff;stroke-width:4.5px;"/><path d="M671.554,168.073l6.801,-5.227" style="fill:none;stroke:#fbffff;stroke-width:4.5px;"/><path d="M676.577,173.3l6.8,-5.227" style="fill:none;stroke:#fbffff;stroke-width:4.5px;"/></g><path d="M402.778,183.647l0,9.321l-14.341,-14.341l14.341,-14.341l0,9.322l54.78,0l0,-9.322l14.341,14.341l-14.341,14.341l0,-9.321l-54.78,0Z" style="fill:#8c5480;"/><path d="M829.807,183.647l0,9.321l-14.341,-14.341l14.341,-14.341l0,9.322l54.78,0l0,-9.322l14.341,14.341l-14.341,14.341l0,-9.321l-54.78,0Z" style="fill:#8c5480;"/></g></svg>